<mxfile host="app.diagrams.net" agent="Mozilla/5.0 (Macintosh; Intel Mac OS X 10_15_7) AppleWebKit/605.1.15 (KHTML, like Gecko) Version/18.3.1 Safari/605.1.15" version="26.2.14">
  <diagram name="Page-1" id="GlqEQ9mIMyizxrz8Tehx">
    <mxGraphModel dx="1161" dy="1692" grid="0" gridSize="10" guides="1" tooltips="1" connect="1" arrows="1" fold="1" page="1" pageScale="1" pageWidth="1024" pageHeight="1024" background="light-dark(#ffffff, #000000)" math="0" shadow="0">
      <root>
        <mxCell id="0" />
        <mxCell id="1" parent="0" />
        <mxCell id="SZMHr25AlI4zSsrbUBDf-78" value="" style="edgeStyle=orthogonalEdgeStyle;rounded=0;orthogonalLoop=1;jettySize=auto;html=1;entryX=0;entryY=0.5;entryDx=0;entryDy=0;entryPerimeter=0;" parent="1" source="SZMHr25AlI4zSsrbUBDf-77" target="SZMHr25AlI4zSsrbUBDf-79" edge="1">
          <mxGeometry relative="1" as="geometry">
            <mxPoint x="160" y="360" as="targetPoint" />
          </mxGeometry>
        </mxCell>
        <mxCell id="SZMHr25AlI4zSsrbUBDf-77" value="User" style="shape=umlActor;verticalLabelPosition=bottom;verticalAlign=top;html=1;outlineConnect=0;" parent="1" vertex="1">
          <mxGeometry x="50" y="330" width="30" height="60" as="geometry" />
        </mxCell>
        <mxCell id="SZMHr25AlI4zSsrbUBDf-84" style="edgeStyle=orthogonalEdgeStyle;rounded=0;orthogonalLoop=1;jettySize=auto;html=1;" parent="1" source="SZMHr25AlI4zSsrbUBDf-79" target="SZMHr25AlI4zSsrbUBDf-83" edge="1">
          <mxGeometry relative="1" as="geometry">
            <Array as="points">
              <mxPoint x="280" y="305" />
              <mxPoint x="280" y="356" />
            </Array>
          </mxGeometry>
        </mxCell>
        <mxCell id="SZMHr25AlI4zSsrbUBDf-79" value="" style="verticalLabelPosition=bottom;html=1;verticalAlign=top;align=center;strokeColor=none;fillColor=#00BEF2;shape=mxgraph.azure.mobile;pointerEvents=1;" parent="1" vertex="1">
          <mxGeometry x="160" y="280" width="35" height="50" as="geometry" />
        </mxCell>
        <mxCell id="SZMHr25AlI4zSsrbUBDf-80" value="" style="sketch=0;aspect=fixed;pointerEvents=1;shadow=0;dashed=0;html=1;strokeColor=#006EAF;labelPosition=center;verticalLabelPosition=bottom;verticalAlign=top;align=center;fillColor=#1ba1e2;shape=mxgraph.azure.laptop;fontColor=#ffffff;" parent="1" vertex="1">
          <mxGeometry x="164" y="400" width="50" height="30" as="geometry" />
        </mxCell>
        <mxCell id="SZMHr25AlI4zSsrbUBDf-81" style="edgeStyle=orthogonalEdgeStyle;rounded=0;orthogonalLoop=1;jettySize=auto;html=1;entryX=0.08;entryY=0.5;entryDx=0;entryDy=0;entryPerimeter=0;" parent="1" source="SZMHr25AlI4zSsrbUBDf-77" target="SZMHr25AlI4zSsrbUBDf-80" edge="1">
          <mxGeometry relative="1" as="geometry">
            <Array as="points">
              <mxPoint x="120" y="360" />
              <mxPoint x="120" y="415" />
            </Array>
          </mxGeometry>
        </mxCell>
        <mxCell id="SZMHr25AlI4zSsrbUBDf-82" value="" style="line;strokeWidth=2;direction=south;html=1;" parent="1" vertex="1">
          <mxGeometry x="240" y="200" width="10" height="390" as="geometry" />
        </mxCell>
        <mxCell id="NYbkjDwAGrp7nPR70hOw-18" value="1" style="edgeStyle=orthogonalEdgeStyle;rounded=0;orthogonalLoop=1;jettySize=auto;html=1;exitX=0.5;exitY=0;exitDx=0;exitDy=0;exitPerimeter=0;entryX=0;entryY=0.5;entryDx=0;entryDy=0;fontSize=32;labelBackgroundColor=light-dark(#FFFFFF,#000000);" edge="1" parent="1" source="SZMHr25AlI4zSsrbUBDf-83" target="NYbkjDwAGrp7nPR70hOw-15">
          <mxGeometry x="0.3019" relative="1" as="geometry">
            <mxPoint x="1" as="offset" />
          </mxGeometry>
        </mxCell>
        <mxCell id="NYbkjDwAGrp7nPR70hOw-21" value="&lt;font style=&quot;font-size: 22px;&quot;&gt;2&lt;/font&gt;" style="edgeStyle=orthogonalEdgeStyle;rounded=0;orthogonalLoop=1;jettySize=auto;html=1;exitX=1;exitY=0.5;exitDx=0;exitDy=0;exitPerimeter=0;entryX=0;entryY=0.5;entryDx=0;entryDy=0;" edge="1" parent="1" source="SZMHr25AlI4zSsrbUBDf-83" target="NYbkjDwAGrp7nPR70hOw-19">
          <mxGeometry relative="1" as="geometry" />
        </mxCell>
        <mxCell id="NYbkjDwAGrp7nPR70hOw-23" value="&lt;font style=&quot;font-size: 22px;&quot;&gt;3&lt;/font&gt;" style="edgeStyle=orthogonalEdgeStyle;rounded=0;orthogonalLoop=1;jettySize=auto;html=1;exitX=0.5;exitY=1;exitDx=0;exitDy=0;exitPerimeter=0;entryX=0;entryY=0.5;entryDx=0;entryDy=0;" edge="1" parent="1" source="SZMHr25AlI4zSsrbUBDf-83" target="NYbkjDwAGrp7nPR70hOw-20">
          <mxGeometry relative="1" as="geometry" />
        </mxCell>
        <mxCell id="SZMHr25AlI4zSsrbUBDf-83" value="Load Balancer" style="outlineConnect=0;dashed=0;verticalLabelPosition=bottom;verticalAlign=top;align=center;html=1;shape=mxgraph.aws3.classic_load_balancer;fillColor=#1ba1e2;fontColor=light-dark(#FFFFFF,#FFFFFF);strokeColor=#006EAF;labelBackgroundColor=light-dark(#000000,#000000);fontSize=22;" parent="1" vertex="1">
          <mxGeometry x="358" y="320" width="69" height="72" as="geometry" />
        </mxCell>
        <mxCell id="SZMHr25AlI4zSsrbUBDf-85" style="edgeStyle=orthogonalEdgeStyle;rounded=0;orthogonalLoop=1;jettySize=auto;html=1;entryX=0;entryY=0.5;entryDx=0;entryDy=0;entryPerimeter=0;" parent="1" source="SZMHr25AlI4zSsrbUBDf-80" target="SZMHr25AlI4zSsrbUBDf-83" edge="1">
          <mxGeometry relative="1" as="geometry">
            <Array as="points">
              <mxPoint x="280" y="415" />
              <mxPoint x="280" y="356" />
            </Array>
          </mxGeometry>
        </mxCell>
        <mxCell id="NYbkjDwAGrp7nPR70hOw-15" value="User Service" style="image;aspect=fixed;perimeter=ellipsePerimeter;html=1;align=center;shadow=0;dashed=0;fontColor=light-dark(#000000,#FFFFFF);labelBackgroundColor=light-dark(#FFFFFF,#000000);fontSize=22;spacingTop=3;image=img/lib/ibm/applications/microservice.svg;horizontal=1;" vertex="1" parent="1">
          <mxGeometry x="570" y="200" width="123.3" height="90" as="geometry" />
        </mxCell>
        <mxCell id="NYbkjDwAGrp7nPR70hOw-19" value="Tweet Service" style="image;aspect=fixed;perimeter=ellipsePerimeter;html=1;align=center;shadow=0;dashed=0;fontColor=light-dark(#000000,#FFFFFF);labelBackgroundColor=light-dark(#FFFFFF,#000000);fontSize=22;spacingTop=3;image=img/lib/ibm/applications/microservice.svg;horizontal=1;" vertex="1" parent="1">
          <mxGeometry x="570" y="396" width="123.3" height="90" as="geometry" />
        </mxCell>
        <mxCell id="NYbkjDwAGrp7nPR70hOw-20" value="Timeline Service" style="image;aspect=fixed;perimeter=ellipsePerimeter;html=1;align=center;shadow=0;dashed=0;fontColor=light-dark(#000000,#FFFFFF);labelBackgroundColor=light-dark(#FFFFFF,#000000);fontSize=22;spacingTop=3;image=img/lib/ibm/applications/microservice.svg;horizontal=1;" vertex="1" parent="1">
          <mxGeometry x="569" y="592" width="123.3" height="90" as="geometry" />
        </mxCell>
      </root>
    </mxGraphModel>
  </diagram>
</mxfile>
